PathFileType	4	(X/Y/Z)	E-squat_0-154.trc
DataRate	CameraRate	NumFrames	NumMarkers	Units	OrigDataRate	OrigDataStartFrame	OrigNumFrames
30	30	5	22	m	30	77	154
Frame#	Time	Hip			RHip			RKnee			RAnkle			RBigToe			RSmallToe			RHeel			LHip			LKnee			LAnkle			LBigToe			LSmallToe			LHeel			Neck			Head			Nose			RShoulder			RElbow			RWrist			LShoulder			LElbow			LWrist			
		X1	Y1	Z1	X2	Y2	Z2	X3	Y3	Z3	X4	Y4	Z4	X5	Y5	Z5	X6	Y6	Z6	X7	Y7	Z7	X8	Y8	Z8	X9	Y9	Z9	X10	Y10	Z10	X11	Y11	Z11	X12	Y12	Z12	X13	Y13	Z13	X14	Y14	Z14	X15	Y15	Z15	X16	Y16	Z16	X17	Y17	Z17	X18	Y18	Z18	X19	Y19	Z19	X20	Y20	Z20	X21	Y21	Z21	X22	Y22	Z22	
77	2.566666666666667	-0.007736294249040341	0.5034887383188422	-0.15819252783191107	-0.11229641165985454	0.5029243466325967	-0.1590824245329412	-0.12745891829163902	0.3421482021698178	0.21288906775094787	-0.13979835138986882	0.002104666706450018	0.027454827750173872	-0.11918382340974858	-0.0807907338968138	0.17790625287743522	-0.17579432447751853	-0.08259981490806682	0.15416879723694968	-0.12042351057540687	-0.056281359935361194	-0.03122793625382476	0.091875198673309	0.5029607235373399	-0.14048566508860252	0.1309748624136565	0.32900513314708607	0.200550572783946	0.12824192620686747	0.009203350870575475	0.017726610599026214	0.1382176157446183	-0.07840011106650213	0.16819671454960866	0.188269109903392	-0.0712135061594922	0.14348624960179773	0.10806083929785193	-0.04907194777896817	-0.061116897091667406	0.007914406263607211	0.8008320022410158	0.30794002799103665	0.008594734358729742	0.9350349142896186	0.5305274271824408	-0.00464636275799349	0.796385981004349	0.44664145972576663	-0.15712850640080317	0.7913838408796684	0.2461323358226624	-0.25028195412230225	0.549185407302436	0.14020482021363576	-0.3005007525531052	0.30624482610185233	0.12897196152971557	0.15585180093382747	0.801803584583871	0.23368762959432426	0.2298033934378666	0.5378731905967871	0.0959614412115024	0.2684199675536072	0.29602390628022823	0.08987087870312635	
78	2.6	-0.008022328423620781	0.5111584609421035	-0.15074521394216395	-0.11319216491805136	0.5116913931843801	-0.15496896192859802	-0.12652699587850066	0.34352452846371007	0.21071958355863685	-0.14073315791102864	0.000985371473900081	0.02689707560759586	-0.11896807244513131	-0.08115580302468234	0.1789619621428534	-0.17559447830965583	-0.08346371040064843	0.15380369439097366	-0.12189948850527922	-0.056988473507049296	-0.03035756814321197	0.09132382890993651	0.5112483564086434	-0.13025143377446347	0.12830060567016405	0.330167935469374	0.19916319427622312	0.1268499039786224	0.008689526702472219	0.01908379270364882	0.1375953943652344	-0.07968437586068053	0.16816012440080175	0.18748981084517782	-0.07214756724348607	0.14433379079547812	0.10767349472113807	-0.04817846516030195	-0.05745743618793635	0.007675009935293509	0.8149709797173369	0.30536327744813957	0.007790579161997165	0.9503410806004424	0.5264834102108307	-0.005687584364855729	0.8099216725270164	0.44301741773580083	-0.1579275599287479	0.8034939915776175	0.24432056904350352	-0.24802561780338936	0.5614238423626259	0.13911417809184895	-0.2987260083133461	0.3182273765580673	0.12648131447632166	0.15482385022347123	0.8133371884682089	0.23267033921341776	0.22668949330668375	0.5513754071195118	0.09234645016754477	0.2648866446402169	0.3100511563695384	0.0888790482138406	
79	2.6333333333333333	-0.009750010895314565	0.5251192798437394	-0.14407153794116748	-0.11558261328210172	0.5259488637157843	-0.1507212148833827	-0.12475862671894042	0.34446506692319195	0.20701005699203273	-0.1415225713110986	0.0005800900537549367	0.02579936006395952	-0.1193691827228956	-0.08070184622589971	0.17941791548187885	-0.17634073941273828	-0.08337598651228219	0.1543075198263649	-0.12308922010859359	-0.05692765581724245	-0.029792796587774836	0.09043252185438028	0.5252638316231732	-0.11988427346890375	0.12481127000930656	0.33237626766187606	0.19699563197533548	0.1267008768998396	0.00890683794636024	0.02062213705633397	0.1374408670714992	-0.08061743641171772	0.16992297078723667	0.1871188055969334	-0.0728406401373019	0.14599676926555885	0.10858695556619365	-0.04699449661312837	-0.054752943804148774	0.00732208566774965	0.8359503637898841	0.3023162282997803	0.0068855674157913774	0.9745763283398082	0.5237728617351907	-0.007360628895741453	0.8318053052976143	0.44018449359363554	-0.15800298334561472	0.8221761112607914	0.24367186765862273	-0.24595888118228001	0.5799258367897999	0.13815707002585895	-0.29736322656259373	0.3369994642138039	0.12359246541457465	0.15425050661195114	0.832472770098338	0.23185984653457772	0.22376322190450706	0.5727446438683901	0.0884188159760384	0.26091950318635265	0.33033669884455324	0.08683674204190055	
80	2.6666666666666665	-0.012591861011102545	0.5442429250405071	-0.14183888746788456	-0.11860537314059325	0.5453216733460216	-0.15033474652271558	-0.12288442951699413	0.3467037853746039	0.2002175404419574	-0.14183135845238004	0.0009114946716048454	0.02448927102964609	-0.12000304670280647	-0.07996522432299207	0.17930615230389474	-0.17762294596299733	-0.082000155285439	0.1555030755477237	-0.12380671154883195	-0.05655714202487221	-0.030643861076673655	0.08975619474116597	0.5444600552011627	-0.11413457700952248	0.12113016741011812	0.3361551953602172	0.1939036822418512	0.12741741538356183	0.010153423901058388	0.021541904110314983	0.13786550265944436	-0.08153236917521467	0.1713250414245511	0.18777229860004194	-0.07363383636739274	0.14657048837549042	0.10980895824018864	-0.04583795918360223	-0.053760066591508004	0.006350948155983987	0.862832999472663	0.2989585951400939	0.0065310367211197816	1.0056107772440221	0.5219333217261252	-0.008385651230829967	0.8606006702651134	0.43890330482129175	-0.1576052473104451	0.8466123239027726	0.24168899154127083	-0.2445564221456034	0.6027667685544892	0.13665714054326925	-0.29628275789469777	0.3609479746928449	0.12088286345958615	0.15438424573513748	0.8562942958949195	0.22926370153234243	0.2213840308460326	0.5988613955339515	0.08755909592234422	0.25647439912893727	0.3558557538362583	0.0841440023513143	
81	2.7	-0.015207008073621056	0.5702560526358627	-0.14128791815551212	-0.12176303314908771	0.5723273940285557	-0.1527448217069197	-0.12148576889752419	0.35157254314205816	0.18732862696353406	-0.14220363773348854	0.0011754700966524765	0.022620258634541826	-0.11993668780566971	-0.07982565539744692	0.17988700286419518	-0.1784713509505241	-0.08057966449713737	0.15674027014221603	-0.12472552461703319	-0.05690513226048472	-0.03266217900623976	0.089806665886527	0.5699737367568783	-0.11001852234065497	0.1169043217485052	0.34215559084177816	0.18896716689799997	0.12772772792713738	0.011094030504099591	0.021454494498867438	0.1380104933682596	-0.08308577943700163	0.1718216641734717	0.18901692409206738	-0.0752194329356314	0.14576350718094314	0.11020581334345722	-0.045466680971182144	-0.05251960754699888	0.005376602193850315	0.8988688259677313	0.2945461596972977	0.0065733683333116626	1.0456143364570254	0.5177365282334184	-0.0074227536065817855	0.8975176442444233	0.43748511802851053	-0.15704619355405416	0.8807210840430258	0.23572082074951342	-0.24244499907713088	0.6343173825274866	0.1333993402484978	-0.29470283120376	0.39374679121294265	0.11750681035075987	0.1549864723945519	0.8860085822153909	0.22573610316699175	0.21987284129324813	0.6305677798447057	0.09215717110774539	0.25187908147411087	0.38768142846404513	0.08153430645483437	
